<?xml version="1.0" encoding="utf-8"?>
<!-- Generator: Adobe Illustrator 16.0.0, SVG Export Plug-In . SVG Version: 6.00 Build 0)  -->
<!DOCTYPE svg PUBLIC "-//W3C//DTD SVG 1.1//EN" "http://www.w3.org/Graphics/SVG/1.1/DTD/svg11.dtd">
<svg version="1.1" id="kaoyao-flora" xmlns="http://www.w3.org/2000/svg" xmlns:xlink="http://www.w3.org/1999/xlink" x="0px" y="0px"
	 width="666px" height="686px" viewBox="0 0 666 686" enable-background="new 0 0 666 686" xml:space="preserve">
<path fill="#4D385C" d="M308.393,121.422c-9.586-4.265-21.6-3.693-30.51,1.424c-21.6,12.413-31.558,39.596-59.656,39.541
	c-2.232-0.004-4.48-0.112-6.748-0.19c-9.422-0.34-16.532-9.089-16.305-18.101c0.094-3.56,1.215-7.231,3.779-9.81
	c1.345-1.36,3.002-2.316,4.834-2.888c1.289-0.398,4.323-0.854,5.967-0.511c-4.471,6.249,6.748,11.15,7.584,1.546
	c0.587-6.76-6.777-10.097-12.439-9.806c-15.17,0.785-19.726,19.623-15.27,31.705c2.421,6.549,8.314,11.484,14.785,13.751
	c4.105,1.451,19.414,3.436,21.879-2.023c-1.962,4.36-0.895,7.45-4.242,12.056c0.307-0.419,10.197-0.46,11.582-0.774
	c4.514-1.051,8.908-2.932,12.713-5.577c6.181-4.301,12.97-12.403,10.883-20.499c4.223,5.31,18.172,9.442,10.975,17.913
	c6.777-5.277,3.984-16.01,7.312-23.396c6.158-13.7,32.869-21.893,41.143-6.946c4.405,7.951,4.489,18.81-3.175,24.737
	c-4.553,3.518-15.824,4.816-16.993-3.163c5.281,1.034,7.223-7.668,1.89-8.759c-9.237-1.888-9.429,11.676-3.327,15.774
	c5.798,3.897,14.212,4.839,20.209,1.624c13.957-7.487,11.42-31.764,1.746-41.7C314.553,124.829,311.604,122.854,308.393,121.422z"/>
<path fill="#4D385C" d="M268.111,169.292c0.033-0.037,0.06-0.077,0.092-0.113c-0.047,0.036-0.081,0.078-0.129,0.113
	C267.955,169.431,267.959,169.431,268.111,169.292z"/>
<path fill="#4D385C" d="M236.952,128.299c13.554,7.331,26.611,2.759,34.796-7.742c5.777-7.428,13.699-13.083,23.081-5.446
	c-0.985-4.22-2.005-6.203-3.843-8.26c-2.343-2.61-4.918-3.59-8.379-3.476c-7.229,0.212-12.844,6.144-16.436,11.869
	c0.414-8.773-6.897-20.315-18.646-16.79c7.352,3.122,12.85,12.296,10.614,20.321c-2.108,7.541-12.855,9.158-19.229,5.646
	c-10.24-5.633-12.234-19.3-9.83-29.674c3.24-13.941,16.662-24.244,29.978-27.976c17.077-4.796,33.876,3.783,44.721,16.772
	c5.263,6.293,9.788,13.968,12.437,21.76c1.588,4.656,6.258,18.347,1.155,22.128l6.792-4.532c1.893-1.247-3.782-16.725-4.545-18.714
	c-2.293-6.039-5.328-11.813-9.051-17.109c-7.119-10.155-17.039-18.981-29.047-22.766c-6.602-2.081-13.391-2.38-19.881-1.242
	c-4.148-0.024-7.379-0.763-12.91-4.679c-6.578-4.663-5.1-11.504-3.307-14.033c3.37-4.766,8.164-3.197,8.92,0.329
	c0.217,0.978-0.596,1.219-1.145,0.464c-0.828-1.135-3.052-0.167-3.693,0.738c-0.641,0.907-0.799,2.423,0.824,3.571
	c1.633,1.161,3.488,0.841,4.811-1.035c1.371-1.93,0.816-5.766-1.648-7.516c-2.489-1.752-6.991-0.768-9.504,2.793
	c-2.475,3.503-2.367,11.289,3.727,15.596c3.528,2.501,7.134,3.917,10.533,4.489c-16.535,4.25-30.477,17.907-33.272,35.453
	C223.248,110.028,226.854,122.84,236.952,128.299z"/>
<path fill="#4D385C" d="M270.803,49.874c0.064-0.061,0.133-0.113,0.195-0.171c-0.076,0.014-0.152,0.024-0.229,0.042
	C269.578,49.757,269.588,49.797,270.803,49.874z"/>
<path fill="#4D385C" d="M333.025,157.568l-0.062,14.571C333.021,168.122,333.077,163.161,333.025,157.568z"/>
<path fill="#4D385C" d="M397.865,170.051c-0.043-0.031-0.076-0.071-0.119-0.104c0.028,0.037,0.054,0.071,0.085,0.104
	C397.966,170.195,397.983,170.195,397.865,170.051z"/>
<path fill="#4D385C" d="M461.165,123.579c-5.661-0.313-13.03,3.005-12.466,9.761c0.805,9.619,12.054,4.754,7.598-1.516
	c1.641-0.342,4.669,0.122,5.952,0.528c1.834,0.574,3.489,1.534,4.836,2.907c2.553,2.582,3.671,6.257,3.744,9.808
	c0.2,9.011-6.945,17.754-16.342,18.063c-2.281,0.073-4.537,0.176-6.761,0.176c-28.099-0.04-37.974-27.248-59.538-39.722
	c-8.887-5.153-20.912-5.757-30.514-1.516c-3.207,1.427-6.158,3.383-8.625,5.895c-9.707,9.907-12.314,34.184,1.63,41.712
	c5.989,3.232,14.401,2.311,20.209-1.564c6.11-4.073,5.96-17.647-3.278-15.79c-5.332,1.074-3.426,9.793,1.874,8.767
	c-1.205,7.982-12.478,6.651-17.022,3.115c-7.642-5.956-7.524-16.805-3.1-24.749c8.322-14.924,35.011-6.656,41.13,7.074
	c3.304,7.408,0.486,18.136,7.254,23.419c-7.196-8.493,6.771-12.587,11.014-17.889c-2.109,8.094,4.647,16.21,10.816,20.529
	c3.8,2.666,8.198,4.554,12.708,5.611c1.372,0.329,11.27,0.395,11.571,0.817c-3.337-4.614-2.255-7.71-4.198-12.07
	c2.436,5.467,17.76,3.532,21.864,2.092c6.47-2.257,12.391-7.167,14.816-13.715C480.838,143.259,476.338,124.402,461.165,123.579z"/>
<path fill="#4D385C" d="M355.602,87.712c-3.722,5.276-6.777,11.055-9.097,17.085c-0.765,1.985-6.485,17.438-4.593,18.701
	l6.768,4.549c-5.089-3.798-0.37-17.464,1.228-22.119c2.668-7.794,7.213-15.446,12.494-21.729
	c10.892-12.949,27.708-21.481,44.775-16.646c13.306,3.78,26.703,14.117,29.894,28.082c2.378,10.367,0.342,24.028-9.91,29.639
	c-6.395,3.497-17.124,1.851-19.222-5.702c-2.215-8.03,3.326-17.197,10.682-20.287c-11.739-3.574-19.082,7.959-18.693,16.729
	c-3.596-5.734-9.174-11.688-16.412-11.925c-3.451-0.117-6.031,0.852-8.369,3.46c-1.853,2.055-2.87,4.039-3.882,8.247
	c9.411-7.61,17.307-1.918,23.068,5.514c8.152,10.521,21.198,15.129,34.772,7.84c10.115-5.427,13.75-18.221,12.061-29.027
	c-2.74-17.537-16.632-31.234-33.153-35.541c3.399-0.565,7.008-1.977,10.541-4.458c6.102-4.295,6.233-12.08,3.771-15.585
	c-2.51-3.567-7.006-4.562-9.484-2.817c-2.482,1.741-3.047,5.571-1.689,7.51c1.321,1.875,3.169,2.2,4.81,1.041
	c1.64-1.137,1.477-2.652,0.835-3.559c-0.639-0.914-2.86-1.883-3.693-0.757c-0.559,0.757-1.361,0.503-1.145-0.462
	c0.778-3.533,5.563-5.08,8.924-0.305c1.788,2.542,3.255,9.379-3.342,14.022c-5.547,3.9-8.784,4.633-12.937,4.641
	c-6.484-1.16-13.275-0.882-19.883,1.178C372.708,68.787,362.768,77.574,355.602,87.712z"/>
<path fill="#4D385C" d="M332.963,172.705l-0.021-14.607C332.876,163.704,332.916,168.678,332.963,172.705z"/>
<path fill="#4D385C" d="M395.524,50.495c-0.086-0.019-0.169-0.03-0.256-0.049c0.067,0.062,0.14,0.12,0.205,0.182
	C396.688,50.558,396.709,50.514,395.524,50.495z"/>
<path fill="#4D385C" d="M333.163,0.297"/>
<path fill="#4D385C" d="M333.699,2.985c4.219,18.518,18.99,30.898,11.343,52.515c8.812-19.029,36.405-17.866,50.227-5.054
	c-52.828-11.047-61.146,59.074-62.221,101.826l-0.022,5.296c-0.008-0.915-0.019-1.842-0.033-2.791
	c-0.021,1.131-0.037,2.234-0.051,3.32l-0.008-6.506c-0.958-42.774-9.1-112.809-61.936-101.889
	c13.869-12.785,41.469-13.873,50.234,5.184c-7.582-21.636,7.223-33.967,11.499-52.478l0.432-2.112L333.699,2.985z"/>
<path fill="#4D385C" d="M317.012,628.278c-5.547,3.916-10.09,8.973-14.007,14.335c-3.898,5.381-7.125,11.233-9.354,17.485
	c-1.909,4.714-3.098,9.645-3.672,14.606c0.744,2.014,1.389,4.038,1.763,6.23c0.124,0.872,0.17,1.755,0.022,2.75
	c-0.102,0.495-0.102,1.043-0.818,1.714c-1.215,0.842-2.256-0.302-2.408-0.618c-1.166-1.864-1.309-3.601-1.562-5.385
	c-0.52-7.128,1.389-13.988,3.723-20.441C295.707,646.209,304.613,634.274,317.012,628.278z M289.406,679.249
	c0.029,1.336,0.225,2.747,0.625,3.819c0.145-0.574,0.295-1.341,0.145-2.038c0-1.456-0.197-2.951-0.445-4.437
	C289.681,677.482,289.406,678.382,289.406,679.249z M299.454,608.43c20.041,0,33.534,14.287,33.534,14.287
	s13.493-14.287,33.538-14.287c20.041,0,49.604,13.69,55.558,46.04c0,0-8.335-16.281-26.193-15.282c0,0-1.781,8.14-8.529,11.312
	c0,0-6.948-3.173-14.687-15.876c-7.741-12.699-16.273-18.255-22.617-18.058c-6.353,0.194-14.686,5.949-14.09,10.516
	c0.59,4.57,14.09,11.912,18.849,22.824c4.765,10.909,1.785,20.43,1.785,20.43s-6.943-0.196-10.717-4.565
	c0,0-1.588,15.09-12.896,19.652c-11.309-4.562-12.898-19.652-12.898-19.652c-3.769,4.369-10.715,4.565-10.715,4.565
	s-2.982-9.521,1.787-20.43c4.764-10.912,18.256-18.254,18.853-22.824c0.597-4.566-7.739-10.321-14.089-10.516
	c-6.352-0.197-14.884,5.358-22.627,18.058c-7.734,12.703-14.682,15.876-14.682,15.876c-6.746-3.173-8.531-11.312-8.531-11.312
	c-17.859-0.999-26.195,15.282-26.195,15.282C249.845,622.12,279.414,608.43,299.454,608.43z M348.986,628.278
	c12.404,5.996,21.283,17.931,26.316,30.677c2.332,6.453,4.242,13.313,3.697,20.441c-0.218,1.784-0.37,3.521-1.564,5.385
	c-0.127,0.316-1.158,1.46-2.404,0.618c-0.719-0.671-0.719-1.219-0.819-1.714c-0.125-0.995-0.072-1.878,0.054-2.75
	c0.342-2.192,1.014-4.217,1.758-6.23c-0.569-4.962-1.758-9.893-3.693-14.606c-2.214-6.252-5.457-12.104-9.352-17.485
	C359.084,637.251,354.52,632.194,348.986,628.278z M375.801,681.03c-0.147,0.697,0.03,1.464,0.151,2.038
	c0.423-1.072,0.596-2.483,0.616-3.819c0-0.867-0.245-1.767-0.318-2.655C375.996,678.079,375.831,679.574,375.801,681.03z
	 M445.201,581.094c-2.479,1.711-5.155,2.977-7.838,4.19c4.713,0.076,9.456,1.271,13.673,3.729c4.24,2.348,7.763,6.222,9.492,10.935
	c1.766,4.64,1.442,10.414-1.683,14.631c-2.951,4.244-8.679,6.575-13.765,5.217c-5.009-1.146-9.575-5.81-9.106-11.248
	c0.077-5.23,5.037-10.188,10.369-9.017c2.501,0.492,4.664,2.273,5.556,4.575c0.849,2.363,0.128,5.026-1.611,6.582
	c1.566-1.763,1.863-4.318,0.921-6.28c-1.02-1.904-3.054-3.191-5.111-3.347c-4.293-0.646-7.836,3.506-7.667,7.538
	c0,4.125,3.328,7.566,7.292,8.389c4.044,0.914,8.214-0.868,10.572-4.264c5.252-6.896,0.913-17.244-6.528-21.658
	c-4.584-2.978-10.169-4.266-15.826-4.266c-10.092,3.788-21.156,4.607-31.451,2.532c-29.217-5.459-52.56-28.126-62.333-54.673
	c11.906,25.601,35.867,45.697,63.107,49.855c13.538,1.961,27.798-0.296,38.621-8.133c11.061-7.52,17.232-20.908,15.526-34.08
	c-1.315-12.607-11.987-24.034-24.908-25.853c-12.896-2.867-26.239,6.552-28.349,19.475c-1.29,6.378,0.597,13,5.255,17.566
	c4.464,4.536,11.683,6.716,17.839,4.957c6.271-1.66,11.26-7.738,11.432-14.589c0.496-6.795-5.486-13.462-12.746-13.567
	c7.218-0.469,14.233,5.877,14.309,13.567c0.374,7.473-4.636,14.982-12.029,17.541c-7.468,2.482-15.826,0.221-21.554-4.98
	c-5.855-5.142-8.58-13.646-7.317-21.261c0.966-7.695,5.333-14.936,11.756-19.424c6.497-4.644,14.485-6.305,22.301-4.982
	c15.446,2.079,28.473,15.176,30.339,31.011C465.543,556.916,457.902,572.861,445.201,581.094z M286.605,557.602
	c6.966,3.774,14.855,0.747,20.984-4.089c6.101-4.967,10.961-11.582,14.534-18.854c-2.651,7.643-6.849,15.013-13.097,20.565
	c-3.072,2.778-6.695,5.183-10.912,6.293c-4.242,1.194-8.905,0.726-12.826-1.129c-8.337-3.427-12.502-15.217-5.823-22.453
	c2.974-3.403,7.932-4.714,12.049-3.622c4.464,1.268,7.022,5.682,6.772,9.698c-0.301-4.067-3.471-7.541-7.07-8.088
	c-3.698-0.667-7.639,0.801-9.795,3.697c-1.216,1.386-1.836,3.071-2.234,4.684c-0.271,2.113-0.17,3.6,0.373,5.435
	C280.58,553.24,283.357,555.916,286.605,557.602z M380.714,560.389c-3.918,1.854-8.584,2.323-12.854,1.129
	c-4.214-1.11-7.811-3.515-10.911-6.293c-6.25-5.553-10.423-12.923-13.093-20.565c3.567,7.271,8.428,13.887,14.557,18.854
	c6.101,4.836,14.015,7.863,20.957,4.089c3.253-1.686,6.053-4.361,7.07-7.862c0.526-1.835,0.65-3.321,0.348-5.435
	c-0.393-1.612-0.988-3.298-2.208-4.684c-2.154-2.896-6.101-4.364-9.82-3.697c-3.57,0.547-6.77,4.021-7.073,8.088
	c-0.219-4.017,2.332-8.431,6.8-9.698c4.092-1.092,9.054,0.219,12.029,3.622C393.215,545.172,389.023,556.962,380.714,560.389z
	 M237.789,561.399c-7.392-2.559-12.403-10.068-12.057-17.541c0.076-7.69,7.098-14.036,14.312-13.567
	c-7.268,0.105-13.218,6.772-12.75,13.567c0.204,6.851,5.186,12.929,11.441,14.589c6.172,1.759,13.364-0.421,17.833-4.957
	c4.66-4.566,6.544-11.188,5.256-17.566c-2.082-12.923-15.452-22.342-28.326-19.475c-12.95,1.818-23.614,13.245-24.927,25.853
	c-1.687,13.172,4.465,26.561,15.527,34.08c10.836,7.837,25.079,10.094,38.621,8.133c27.231-4.158,51.219-24.255,63.125-49.855
	c-9.77,26.547-33.116,49.214-62.334,54.673c-10.293,2.075-21.379,1.256-31.477-2.532c-5.66,0-11.215,1.288-15.799,4.266
	c-7.469,4.414-11.808,14.762-6.524,21.658c2.357,3.396,6.524,5.178,10.543,4.264c3.97-0.822,7.316-4.264,7.316-8.389
	c0.173-4.032-3.374-8.184-7.669-7.538c-2.078,0.155-4.116,1.442-5.104,3.347c-0.974,1.962-0.649,4.518,0.917,6.28
	c-1.732-1.556-2.479-4.219-1.633-6.582c0.887-2.302,3.07-4.083,5.576-4.575c5.312-1.171,10.268,3.786,10.344,9.017
	c0.493,5.438-4.095,10.102-9.08,11.248c-5.082,1.358-10.814-0.973-13.792-5.217c-3.101-4.217-3.448-9.991-1.683-14.631
	c1.735-4.713,5.279-8.587,9.502-10.935c4.215-2.457,8.951-3.652,13.667-3.729c-2.68-1.214-5.358-2.479-7.815-4.19
	c-12.704-8.232-20.364-24.178-18.531-39.331c1.834-15.835,14.856-28.932,30.331-31.011c7.796-1.322,15.807,0.339,22.278,4.982
	c6.43,4.488,10.793,11.729,11.783,19.424c1.266,7.615-1.463,16.119-7.338,21.261C253.588,561.62,245.257,563.882,237.789,561.399z
	 M303.223,579.461c0,0,23.815-14.286,29.766-44.802c5.95,30.516,29.764,44.802,29.764,44.802
	c-21.629-0.796-27.976-11.512-27.976-11.512v15.456c3.396,0.813,5.949,3.722,5.949,7.365c0,3.647-2.554,6.565-5.949,7.385v5.086
	c1.909,0.728,3.271,2.533,3.271,4.693c0,2.805-2.257,5.059-5.06,5.059c-2.778,0-5.057-2.254-5.057-5.059
	c0-2.16,1.362-3.966,3.268-4.693v-5.086c-3.373-0.819-5.947-3.737-5.947-7.385c0-3.644,2.574-6.552,5.947-7.365v-15.456
	C331.199,567.949,324.853,578.665,303.223,579.461z M333,531.252l-8.062-11.085L333,509.083l8.062,11.084L333,531.252z"/>
</svg>
