<?xml version="1.0" encoding="utf-8"?>
<!-- Generator: Adobe Illustrator 16.0.0, SVG Export Plug-In . SVG Version: 6.00 Build 0)  -->
<!DOCTYPE svg PUBLIC "-//W3C//DTD SVG 1.1//EN" "http://www.w3.org/Graphics/SVG/1.1/DTD/svg11.dtd">
<svg version="1.1" id="kaoyao-text" xmlns="http://www.w3.org/2000/svg" xmlns:xlink="http://www.w3.org/1999/xlink" x="0px" y="0px"
	 width="666px" height="686px" viewBox="0 0 666 686" enable-background="new 0 0 666 686" xml:space="preserve">
<path fill="#4D385C" d="M10.79,388.757h43.157v-19.531H4.904v-9.764h49.043v-18.555h19.617v123.045H53.947v-33.203H0v-10.742h53.947
	v-21.484H10.79V388.757z M46.101,243.25h33.349v-17.578h18.637v17.578h54.928v9.766H98.086v17.578h72.583v11.719H0.981v-11.719
	h13.731c7.847-7.812,12.414-21.484,13.731-41.016h21.579C48.705,234.14,47.403,238.703,46.101,243.25z M42.177,253.015
	c-8.506,7.812-16.353,13.672-23.541,17.578h60.813v-17.578H42.177z M46.101,333.095v9.766H26.483v-52.736h19.617v5.859h79.449
	v-5.859h19.617v52.736H125.55v-9.766H46.101z M46.101,323.329h79.449v-17.58H46.101V323.329z M115.741,464.929H96.124V340.907
	h19.617v18.555h51.004v9.764h-51.004v19.531h45.119v9.766h-45.119v21.484h52.966v9.766h-52.966V464.929z"/>
<path fill="#4D385C" d="M252.08,464.929c7.847-19.531,11.771-35.797,11.771-48.828V226.648h17.655v5.859h13.731v-5.859h17.655
	v212.89c-1.318,10.406-8.827,18.875-22.56,25.391c-1.318-1.312-2.942-1.953-4.904-1.953l-8.827,2.93l-2.942-2.93
	c15.034-6.516,22.222-14.328,21.578-23.438v-78.123h-13.731v44.92c-1.962,16.938-9.809,36.453-23.541,58.594H252.08z
	 M281.506,293.054h13.731v-50.781h-13.731V293.054z M295.237,302.82h-13.731v48.83h13.731V302.82z M318.778,371.179v-9.764h21.579
	l5.885-21.484h19.616l-5.885,21.484h60.812v9.764h-17.655c-4.582,17.578-12.106,33.859-22.56,48.828
	c1.303,1.312,3.265,2.609,5.886,3.906c12.414,7.172,19.938,12.359,22.559,15.625c0,6.5-0.98,14.969-2.942,25.391h-0.98
	c-6.544-5.219-17.992-16.281-34.33-33.203c-15.693,11.062-32.046,21.484-49.042,31.25h-10.79
	c21.579-13.031,39.234-26.367,52.966-40.039c-5.241-5.859-10.789-11.383-16.674-16.602l-2.942,13.672h-19.618l12.753-48.828H318.778
	z M348.203,265.71v-27.344h-29.425v-9.766h101.027v9.766h-34.329v27.344h9.808v-7.812h17.656v83.986h-17.656v-9.766h-56.889v9.766
	h-17.656v-85.939h17.656v9.766H348.203z M338.396,322.351h9.808v-46.875h-9.808V322.351z M369.781,414.147
	c6.529-11.062,11.112-25.391,13.733-42.969h-26.483l-8.828,31.25c0.645,0.656,3.264,2.289,7.847,4.883
	C362.579,411.218,367.162,413.507,369.781,414.147z M361.935,265.71h9.81v-27.344h-9.81V265.71z M361.935,322.351h9.81v-46.875
	h-9.81V322.351z M385.477,322.351h9.808v-46.875h-9.808V322.351z"/>
<path fill="#4D385C" d="M501.217,375.085v-9.766h25.502v-37.107h-29.425v-9.768h42.177l10.789-50.781l9.808,1.953l-11.77,48.828
	h17.655v9.768h-21.578v37.107h22.56v9.766h-22.56v13.672c0,18.891-11.449,41.992-34.331,69.336c-1.317,1.297-2.298,2.93-2.942,4.883
	h-5.885c16.337-20.844,24.844-42.312,25.502-64.453v-23.438H501.217z M499.255,261.804v-9.766h33.349
	c-0.658-1.297-1.317-4.227-1.961-8.789c-2.621-10.406-3.924-17.578-3.924-21.484l0.981-0.977
	c10.452,9.766,16.675,15.625,18.636,17.578c-1.318,4.562-3.923,9.125-7.847,13.672h25.503v9.766H499.255z M521.815,313.562h-0.981
	c-2.621-7.156-4.904-16.601-6.866-28.32c-1.962-7.812-2.942-12.695-2.942-14.648l0.98-0.977c0,0.656,0.322,1.312,0.98,1.953
	c11.771,13.672,18.3,21.484,19.617,23.438C531.286,298.914,527.7,305.108,521.815,313.562z M603.226,261.804h-31.388v-9.766h31.388
	v-29.297h19.617v29.297h41.195v9.766h-41.195v33.203h15.693v-11.719h17.656v78.126h-17.656v-7.812h-7.847
	c-0.659,22.139,11.111,43.623,35.311,64.451c-4.582,9.125-5.241,19.195-1.962,30.273l-0.98,0.977
	c-24.858-18.875-36.292-50.781-34.329-95.701h-5.886v109.373h-19.617v-70.312c-10.467,15.625-27.464,35.156-51.005,58.594h-7.846
	c28.107-27.984,47.08-60.547,56.889-97.654h-12.751v7.812h-17.655v-78.126h17.655v11.719h14.713V261.804z M603.226,343.837v-39.064
	h-14.713v39.064H603.226z M622.843,304.772v39.064h15.693v-39.064H622.843z"/>
</svg>
